<svg width="357.69500732421875px" height="120.8px" xmlns="http://www.w3.org/2000/svg" viewBox="71.15249633789062 14.600000000000001 357.69500732421875 120.8" style="background: rgba(0, 0, 0, 0);" preserveAspectRatio="xMidYMid"><defs><filter id="editing-extrusion" x="-100%" y="-100%" width="300%" height="300%"><feFlood result="color1" flood-color="#444"></feFlood><feConvolveMatrix order="8,8" divisor="1" kernelMatrix="1 0 0 0 0 0 0 0 0 1 0 0 0 0 0 0 0 0 1 0 0 0 0 0 0 0 0 1 0 0 0 0 0 0 0 0 1 0 0 0 0 0 0 0 0 1 0 0 0 0 0 0 0 0 1 0 0 0 0 0 0 0 0 1" in="SourceAlpha" result="extrude"></feConvolveMatrix><feComposite in="color1" in2="extrude" result="comp-extrude" operator="in"></feComposite><feOffset dx="4" dy="4" in="comp-extrude" result="offset-extrude"></feOffset><feMerge><feMergeNode in="offset-extrude"></feMergeNode><feMergeNode in="SourceGraphic"></feMergeNode></feMerge></filter></defs><g filter="url(#editing-extrusion)"><g transform="translate(126.19002079963684, 98.68000030517578)"><path d="M2.05-15.62L2.05-15.62L2.05-15.62Q2.05-27.71 8.32-35.33L8.32-35.33L8.32-35.33Q14.98-43.58 26.56-43.58L26.56-43.58L26.56-43.58Q34.94-43.58 39.17-39.52L39.17-39.52L39.17-39.52Q43.39-35.46 43.39-26.88L43.39-26.88L43.39-26.88Q43.39-13.82 36.74-6.21L36.74-6.21L36.74-6.21Q30.14 1.28 19.07 1.28L19.07 1.28L19.07 1.28Q10.43 1.28 6.24-3.04L6.24-3.04L6.24-3.04Q2.05-7.36 2.05-15.62ZM18.88-28.86L18.88-28.86L18.88-28.86Q16-17.34 16-8.26L16-8.26L16-8.26Q16-6.08 16.74-4.67L16.74-4.67L16.74-4.67Q17.47-3.26 19.42-3.26L19.42-3.26L19.42-3.26Q21.38-3.26 22.59-4.19L22.59-4.19L22.59-4.19Q23.81-5.12 24.77-7.23L24.77-7.23L24.77-7.23Q26.30-10.69 27.74-18.02L27.74-18.02L27.74-18.02Q29.18-25.34 29.31-28.38L29.31-28.38L29.31-28.38Q29.44-31.42 29.44-33.73L29.44-33.73L29.44-33.73Q29.44-36.03 28.74-37.50L28.74-37.50L28.74-37.50Q28.03-38.98 26.14-38.98L26.14-38.98L26.14-38.98Q24.26-38.98 22.98-37.82L22.98-37.82L22.98-37.82Q20.61-35.65 18.88-28.86ZM94.27-10.69L94.27-10.69Q90.05-4.86 85.98-1.79L85.98-1.79L85.98-1.79Q81.92 1.28 77.73 1.28L77.73 1.28L77.73 1.28Q73.54 1.28 72.06 0.45L72.06 0.45L72.06-13.63L72.06-13.63Q68.42-3.90 61.89-0.13L61.89-0.13L61.89-0.13Q59.52 1.28 57.28 1.28L57.28 1.28L57.28 1.28Q52.99 1.28 51.14 0.45L51.14 0.45L51.14 0.45Q50.69-14.21 50.30-18.27L50.30-18.27L50.30-18.27Q49.92-22.34 49.60-24.83L49.60-24.83L49.60-24.83Q48.96-29.82 46.78-31.87L46.78-31.87L46.78-31.87Q49.54-33.92 53.38-33.92L53.38-33.92L53.38-33.92Q60.80-33.92 61.82-24.70L61.82-24.70L61.82-24.70Q62.08-22.53 62.08-20.22L62.08-20.22L62.08-20.22Q62.08-16.77 61.31-4.74L61.31-4.74L61.31-4.74Q62.85-5.44 64.48-7.97L64.48-7.97L64.48-7.97Q66.11-10.50 67.46-13.95L67.46-13.95L67.46-13.95Q70.46-21.95 70.46-28.86L70.46-28.86L70.46-28.86Q70.46-29.95 70.18-31.10L70.18-31.10L70.18-31.10Q69.89-32.26 69.57-32.58L69.57-32.58L69.57-32.58Q71.81-33.92 75.23-33.92L75.23-33.92L75.23-33.92Q78.66-33.92 80.29-31.58L80.29-31.58L80.29-31.58Q81.92-29.25 82.37-24.96L82.37-24.96L82.37-24.96Q82.88-19.52 82.88-16.26L82.88-16.26L82.88-16.26Q82.88-11.71 82.43-4.99L82.43-4.99L82.43-4.99Q85.63-7.30 88.26-14.85L88.26-14.85L88.26-14.85Q90.88-22.40 90.88-27.78L90.88-27.78L90.88-27.78Q90.88-30.14 90.50-31.55L90.50-31.55L90.50-31.55Q92.61-33.92 96.26-33.92L96.26-33.92L96.26-33.92Q98.50-33.92 100.13-32.70L100.13-32.70L100.13-32.70Q101.76-31.49 101.76-29.22L101.76-29.22L101.76-29.22Q101.76-26.94 101.09-24.51L101.09-24.51L101.09-24.51Q100.42-22.08 99.33-19.58L99.33-19.58L99.33-19.58Q97.22-14.59 94.27-10.69L94.27-10.69ZM118.78-3.52L118.78-3.52L118.78-3.52Q116.80 1.28 110.46 1.28L110.46 1.28L110.46 1.28Q107.26 1.28 105.22-0.96L105.22-0.96L105.22-0.96Q103.55-2.82 103.55-4.93L103.55-4.93L103.55-4.93Q103.55-9.73 105.79-20.22L105.79-20.22L110.46-44.80L123.46-46.08L117.25-13.70L117.25-13.70Q116.16-8.96 116.16-7.30L116.16-7.30L116.16-7.30Q116.16-3.65 118.78-3.52ZM148.10-4.80L148.10-4.80L148.10-4.80Q148.10-9.28 149.89-18.24L149.89-18.24L140.42-18.24L136.90 0L123.52 0L131.65-42.24L145.15-42.24L141.44-23.36L150.91-23.36L154.43-42.24L167.94-42.24L167.94-42.24Q167.04-37.50 165.89-32.19L165.89-32.19L163.71-21.76L163.71-21.76Q161.28-9.60 161.28-4.29L161.28-4.29L161.28-4.29Q161.28-2.11 161.98-0.90L161.98-0.90L161.98-0.90Q158.78 1.28 155.04 1.28L155.04 1.28L155.04 1.28Q151.30 1.28 149.70-0.51L149.70-0.51L149.70-0.51Q148.10-2.30 148.10-4.80ZM190.02-2.69L190.02-2.69L190.02-2.69Q186.94 1.28 179.33 1.28L179.33 1.28L179.33 1.28Q175.36 1.28 172.48-1.12L172.48-1.12L172.48-1.12Q169.60-3.52 169.60-6.98L169.60-6.98L169.60-6.98Q169.60-8.90 169.79-9.86L169.79-9.86L174.08-32.64L187.07-33.92L182.40-9.22L182.40-9.22Q182.14-7.81 182.14-6.98L182.14-6.98L182.14-6.98Q182.14-3.26 184.38-3.26L184.38-3.26L184.38-3.26Q186.88-3.26 188.67-6.66L188.67-6.66L188.67-6.66Q189.25-7.74 189.50-9.15L189.50-9.15L194.05-32.64L206.66-33.92L201.92-8.96L201.92-8.96Q201.73-8 201.73-6.98L201.73-6.98L201.73-6.98Q201.73-5.95 202.30-4.83L202.30-4.83L202.30-4.83Q202.88-3.71 204.74-3.46L204.74-3.46L204.74-3.46Q204.35-1.92 203.01-0.90L203.01-0.90L203.01-0.90Q200.19 1.28 197.15 1.28L197.15 1.28L197.15 1.28Q194.11 1.28 192.32 0.19L192.32 0.19L192.32 0.19Q190.53-0.90 190.02-2.69ZM209.28-3.07L209.28-3.07L217.22-44.80L230.21-46.08L228.22-36.29L228.22-36.29Q227.52-33.28 226.62-31.17L226.62-31.17L226.62-31.17Q228.03-32.96 231.10-33.66L231.10-33.66L231.10-33.66Q232-33.92 233.09-33.92L233.09-33.92L233.09-33.92Q239.04-33.92 242.30-30.30L242.30-30.30L242.30-30.30Q245.57-26.69 245.57-19.71L245.57-19.71L245.57-19.71Q245.57-10.62 240.38-4.93L240.38-4.93L240.38-4.93Q234.82 1.28 224.70 1.28L224.70 1.28L224.70 1.28Q217.73 1.28 212.48-1.02L212.48-1.02L212.48-1.02Q210.62-1.86 209.28-3.07ZM225.54-22.40L222.14-3.65L222.14-3.65Q223.49-2.50 225.15-2.50L225.15-2.50L225.15-2.50Q226.82-2.50 227.78-3.14L227.78-3.14L227.78-3.14Q228.74-3.78 229.44-5.06L229.44-5.06L229.44-5.06Q231.36-8.51 232.90-19.07L232.90-19.07L232.90-19.07Q233.34-22.08 233.34-25.09L233.34-25.09L233.34-25.09Q233.34-28.10 232.67-29.06L232.67-29.06L232.67-29.06Q232-30.02 230.72-30.02L230.72-30.02L230.72-30.02Q226.82-30.02 225.54-22.40L225.54-22.40Z" fill="#ccc"></path></g></g><style>text {
  font-size: 64px;
  font-family: Arial Black;
  dominant-baseline: central;
  text-anchor: middle;
}</style></svg>